<mxfile host="app.diagrams.net" modified="2023-12-12T20:29:02.013Z" agent="Mozilla/5.0 (Windows NT 10.0; Win64; x64) AppleWebKit/537.36 (KHTML, like Gecko) Chrome/120.0.0.0 Safari/537.36" etag="J-0goxGFRpGF6r871e0-" version="22.1.8" type="google">
  <diagram name="Page-1" id="0HK8MGrzFvgt7z4HL0l8">
    <mxGraphModel dx="1900" dy="581" grid="1" gridSize="10" guides="1" tooltips="1" connect="1" arrows="1" fold="1" page="1" pageScale="1" pageWidth="850" pageHeight="1100" math="0" shadow="0">
      <root>
        <mxCell id="0" />
        <mxCell id="1" parent="0" />
        <mxCell id="_nrVnMflPuGKOb18nm5H-7" style="edgeStyle=orthogonalEdgeStyle;rounded=0;orthogonalLoop=1;jettySize=auto;html=1;exitX=1;exitY=0.3333333333333333;exitDx=0;exitDy=0;exitPerimeter=0;" edge="1" parent="1" source="_nrVnMflPuGKOb18nm5H-2" target="_nrVnMflPuGKOb18nm5H-3">
          <mxGeometry relative="1" as="geometry" />
        </mxCell>
        <mxCell id="_nrVnMflPuGKOb18nm5H-2" value="Client" style="shape=umlActor;verticalLabelPosition=bottom;verticalAlign=top;html=1;outlineConnect=0;" vertex="1" parent="1">
          <mxGeometry x="20" y="30" width="40" height="60" as="geometry" />
        </mxCell>
        <mxCell id="_nrVnMflPuGKOb18nm5H-8" style="edgeStyle=orthogonalEdgeStyle;rounded=0;orthogonalLoop=1;jettySize=auto;html=1;exitX=1;exitY=0.5;exitDx=0;exitDy=0;" edge="1" parent="1" source="_nrVnMflPuGKOb18nm5H-3" target="_nrVnMflPuGKOb18nm5H-4">
          <mxGeometry relative="1" as="geometry" />
        </mxCell>
        <mxCell id="_nrVnMflPuGKOb18nm5H-3" value="Register" style="ellipse;whiteSpace=wrap;html=1;" vertex="1" parent="1">
          <mxGeometry x="120" y="10" width="120" height="80" as="geometry" />
        </mxCell>
        <mxCell id="_nrVnMflPuGKOb18nm5H-9" style="edgeStyle=orthogonalEdgeStyle;rounded=0;orthogonalLoop=1;jettySize=auto;html=1;exitX=1;exitY=0.5;exitDx=0;exitDy=0;entryX=0;entryY=0.5;entryDx=0;entryDy=0;" edge="1" parent="1" source="_nrVnMflPuGKOb18nm5H-4" target="_nrVnMflPuGKOb18nm5H-6">
          <mxGeometry relative="1" as="geometry" />
        </mxCell>
        <mxCell id="_nrVnMflPuGKOb18nm5H-4" value="Login" style="ellipse;whiteSpace=wrap;html=1;" vertex="1" parent="1">
          <mxGeometry x="305" y="10" width="120" height="80" as="geometry" />
        </mxCell>
        <mxCell id="_nrVnMflPuGKOb18nm5H-12" style="edgeStyle=orthogonalEdgeStyle;rounded=0;orthogonalLoop=1;jettySize=auto;html=1;exitX=0;exitY=1;exitDx=0;exitDy=0;entryX=0.5;entryY=0;entryDx=0;entryDy=0;" edge="1" parent="1" source="_nrVnMflPuGKOb18nm5H-6" target="_nrVnMflPuGKOb18nm5H-10">
          <mxGeometry relative="1" as="geometry" />
        </mxCell>
        <mxCell id="_nrVnMflPuGKOb18nm5H-13" style="edgeStyle=orthogonalEdgeStyle;rounded=0;orthogonalLoop=1;jettySize=auto;html=1;exitX=0.5;exitY=1;exitDx=0;exitDy=0;" edge="1" parent="1" source="_nrVnMflPuGKOb18nm5H-6" target="_nrVnMflPuGKOb18nm5H-11">
          <mxGeometry relative="1" as="geometry" />
        </mxCell>
        <mxCell id="_nrVnMflPuGKOb18nm5H-26" style="edgeStyle=orthogonalEdgeStyle;rounded=0;orthogonalLoop=1;jettySize=auto;html=1;exitX=1;exitY=1;exitDx=0;exitDy=0;" edge="1" parent="1" source="_nrVnMflPuGKOb18nm5H-6" target="_nrVnMflPuGKOb18nm5H-14">
          <mxGeometry relative="1" as="geometry" />
        </mxCell>
        <mxCell id="_nrVnMflPuGKOb18nm5H-6" value="Home" style="ellipse;whiteSpace=wrap;html=1;" vertex="1" parent="1">
          <mxGeometry x="490" y="70" width="120" height="80" as="geometry" />
        </mxCell>
        <mxCell id="_nrVnMflPuGKOb18nm5H-19" style="edgeStyle=orthogonalEdgeStyle;rounded=0;orthogonalLoop=1;jettySize=auto;html=1;exitX=0.75;exitY=1;exitDx=0;exitDy=0;entryX=0.5;entryY=0;entryDx=0;entryDy=0;" edge="1" parent="1" source="_nrVnMflPuGKOb18nm5H-10" target="_nrVnMflPuGKOb18nm5H-17">
          <mxGeometry relative="1" as="geometry" />
        </mxCell>
        <mxCell id="_nrVnMflPuGKOb18nm5H-10" value="Product" style="rounded=1;whiteSpace=wrap;html=1;" vertex="1" parent="1">
          <mxGeometry y="200" width="120" height="60" as="geometry" />
        </mxCell>
        <mxCell id="_nrVnMflPuGKOb18nm5H-21" style="edgeStyle=orthogonalEdgeStyle;rounded=0;orthogonalLoop=1;jettySize=auto;html=1;exitX=0.5;exitY=1;exitDx=0;exitDy=0;entryX=0.5;entryY=0;entryDx=0;entryDy=0;" edge="1" parent="1" source="_nrVnMflPuGKOb18nm5H-11" target="_nrVnMflPuGKOb18nm5H-20">
          <mxGeometry relative="1" as="geometry" />
        </mxCell>
        <mxCell id="_nrVnMflPuGKOb18nm5H-25" style="edgeStyle=orthogonalEdgeStyle;rounded=0;orthogonalLoop=1;jettySize=auto;html=1;exitX=0.75;exitY=1;exitDx=0;exitDy=0;entryX=0.5;entryY=0;entryDx=0;entryDy=0;" edge="1" parent="1" source="_nrVnMflPuGKOb18nm5H-11" target="_nrVnMflPuGKOb18nm5H-22">
          <mxGeometry relative="1" as="geometry" />
        </mxCell>
        <mxCell id="_nrVnMflPuGKOb18nm5H-11" value="Order" style="rounded=1;whiteSpace=wrap;html=1;" vertex="1" parent="1">
          <mxGeometry x="270" y="210" width="120" height="60" as="geometry" />
        </mxCell>
        <mxCell id="_nrVnMflPuGKOb18nm5H-24" style="edgeStyle=orthogonalEdgeStyle;rounded=0;orthogonalLoop=1;jettySize=auto;html=1;exitX=0.5;exitY=1;exitDx=0;exitDy=0;entryX=0.5;entryY=0;entryDx=0;entryDy=0;" edge="1" parent="1" source="_nrVnMflPuGKOb18nm5H-14" target="_nrVnMflPuGKOb18nm5H-23">
          <mxGeometry relative="1" as="geometry" />
        </mxCell>
        <mxCell id="_nrVnMflPuGKOb18nm5H-14" value="Profile" style="rounded=1;whiteSpace=wrap;html=1;" vertex="1" parent="1">
          <mxGeometry x="570" y="210" width="120" height="60" as="geometry" />
        </mxCell>
        <mxCell id="_nrVnMflPuGKOb18nm5H-15" value="Search (Based on Prod or Merchant)" style="rounded=0;whiteSpace=wrap;html=1;" vertex="1" parent="1">
          <mxGeometry x="-100" y="310" width="120" height="60" as="geometry" />
        </mxCell>
        <mxCell id="_nrVnMflPuGKOb18nm5H-16" style="edgeStyle=orthogonalEdgeStyle;rounded=0;orthogonalLoop=1;jettySize=auto;html=1;exitX=0;exitY=1;exitDx=0;exitDy=0;entryX=0.148;entryY=0.037;entryDx=0;entryDy=0;entryPerimeter=0;" edge="1" parent="1" source="_nrVnMflPuGKOb18nm5H-10" target="_nrVnMflPuGKOb18nm5H-15">
          <mxGeometry relative="1" as="geometry" />
        </mxCell>
        <mxCell id="_nrVnMflPuGKOb18nm5H-17" value="Product display" style="rounded=0;whiteSpace=wrap;html=1;" vertex="1" parent="1">
          <mxGeometry x="30" y="310" width="120" height="60" as="geometry" />
        </mxCell>
        <mxCell id="_nrVnMflPuGKOb18nm5H-20" value="Order placed&amp;nbsp;" style="rounded=0;whiteSpace=wrap;html=1;" vertex="1" parent="1">
          <mxGeometry x="210" y="310" width="120" height="60" as="geometry" />
        </mxCell>
        <mxCell id="_nrVnMflPuGKOb18nm5H-22" value="previous orders" style="rounded=0;whiteSpace=wrap;html=1;" vertex="1" parent="1">
          <mxGeometry x="360" y="310" width="120" height="60" as="geometry" />
        </mxCell>
        <mxCell id="_nrVnMflPuGKOb18nm5H-23" value="view profile" style="rounded=0;whiteSpace=wrap;html=1;" vertex="1" parent="1">
          <mxGeometry x="590" y="330" width="120" height="60" as="geometry" />
        </mxCell>
        <mxCell id="_nrVnMflPuGKOb18nm5H-32" style="edgeStyle=orthogonalEdgeStyle;rounded=0;orthogonalLoop=1;jettySize=auto;html=1;exitX=1;exitY=0.3333333333333333;exitDx=0;exitDy=0;exitPerimeter=0;" edge="1" parent="1" source="_nrVnMflPuGKOb18nm5H-27" target="_nrVnMflPuGKOb18nm5H-29">
          <mxGeometry relative="1" as="geometry" />
        </mxCell>
        <mxCell id="_nrVnMflPuGKOb18nm5H-27" value="Merchant" style="shape=umlActor;verticalLabelPosition=bottom;verticalAlign=top;html=1;outlineConnect=0;" vertex="1" parent="1">
          <mxGeometry x="-100" y="420" width="30" height="60" as="geometry" />
        </mxCell>
        <mxCell id="_nrVnMflPuGKOb18nm5H-34" style="edgeStyle=orthogonalEdgeStyle;rounded=0;orthogonalLoop=1;jettySize=auto;html=1;exitX=1;exitY=0.5;exitDx=0;exitDy=0;" edge="1" parent="1" source="_nrVnMflPuGKOb18nm5H-28" target="_nrVnMflPuGKOb18nm5H-31">
          <mxGeometry relative="1" as="geometry" />
        </mxCell>
        <mxCell id="_nrVnMflPuGKOb18nm5H-28" value="login" style="ellipse;whiteSpace=wrap;html=1;" vertex="1" parent="1">
          <mxGeometry x="305" y="400" width="120" height="80" as="geometry" />
        </mxCell>
        <mxCell id="_nrVnMflPuGKOb18nm5H-33" style="edgeStyle=orthogonalEdgeStyle;rounded=0;orthogonalLoop=1;jettySize=auto;html=1;" edge="1" parent="1" source="_nrVnMflPuGKOb18nm5H-29" target="_nrVnMflPuGKOb18nm5H-28">
          <mxGeometry relative="1" as="geometry" />
        </mxCell>
        <mxCell id="_nrVnMflPuGKOb18nm5H-29" value="register" style="ellipse;whiteSpace=wrap;html=1;" vertex="1" parent="1">
          <mxGeometry x="80" y="400" width="120" height="80" as="geometry" />
        </mxCell>
        <mxCell id="_nrVnMflPuGKOb18nm5H-39" style="edgeStyle=orthogonalEdgeStyle;rounded=0;orthogonalLoop=1;jettySize=auto;html=1;exitX=0.5;exitY=1;exitDx=0;exitDy=0;entryX=0.5;entryY=0;entryDx=0;entryDy=0;" edge="1" parent="1" source="_nrVnMflPuGKOb18nm5H-31" target="_nrVnMflPuGKOb18nm5H-35">
          <mxGeometry relative="1" as="geometry" />
        </mxCell>
        <mxCell id="_nrVnMflPuGKOb18nm5H-31" value="dashboard" style="ellipse;whiteSpace=wrap;html=1;" vertex="1" parent="1">
          <mxGeometry x="550" y="470" width="120" height="80" as="geometry" />
        </mxCell>
        <mxCell id="_nrVnMflPuGKOb18nm5H-51" style="edgeStyle=orthogonalEdgeStyle;rounded=0;orthogonalLoop=1;jettySize=auto;html=1;exitX=1;exitY=0.5;exitDx=0;exitDy=0;entryX=0.75;entryY=0;entryDx=0;entryDy=0;" edge="1" parent="1" source="_nrVnMflPuGKOb18nm5H-35" target="_nrVnMflPuGKOb18nm5H-49">
          <mxGeometry relative="1" as="geometry" />
        </mxCell>
        <mxCell id="_nrVnMflPuGKOb18nm5H-35" value="Order" style="rounded=1;whiteSpace=wrap;html=1;" vertex="1" parent="1">
          <mxGeometry x="350" y="630" width="120" height="60" as="geometry" />
        </mxCell>
        <mxCell id="_nrVnMflPuGKOb18nm5H-45" style="edgeStyle=orthogonalEdgeStyle;rounded=0;orthogonalLoop=1;jettySize=auto;html=1;exitX=0.25;exitY=1;exitDx=0;exitDy=0;" edge="1" parent="1" source="_nrVnMflPuGKOb18nm5H-36" target="_nrVnMflPuGKOb18nm5H-44">
          <mxGeometry relative="1" as="geometry" />
        </mxCell>
        <mxCell id="_nrVnMflPuGKOb18nm5H-36" value="Product" style="rounded=1;whiteSpace=wrap;html=1;" vertex="1" parent="1">
          <mxGeometry x="70" y="630" width="120" height="60" as="geometry" />
        </mxCell>
        <mxCell id="_nrVnMflPuGKOb18nm5H-47" style="edgeStyle=orthogonalEdgeStyle;rounded=0;orthogonalLoop=1;jettySize=auto;html=1;exitX=0.5;exitY=1;exitDx=0;exitDy=0;entryX=0.5;entryY=0;entryDx=0;entryDy=0;" edge="1" parent="1" source="_nrVnMflPuGKOb18nm5H-37" target="_nrVnMflPuGKOb18nm5H-46">
          <mxGeometry relative="1" as="geometry" />
        </mxCell>
        <mxCell id="_nrVnMflPuGKOb18nm5H-37" value="Profile" style="rounded=1;whiteSpace=wrap;html=1;" vertex="1" parent="1">
          <mxGeometry x="640" y="630" width="120" height="60" as="geometry" />
        </mxCell>
        <mxCell id="_nrVnMflPuGKOb18nm5H-38" style="edgeStyle=orthogonalEdgeStyle;rounded=0;orthogonalLoop=1;jettySize=auto;html=1;exitX=0;exitY=1;exitDx=0;exitDy=0;entryX=0.433;entryY=0.023;entryDx=0;entryDy=0;entryPerimeter=0;" edge="1" parent="1" source="_nrVnMflPuGKOb18nm5H-31" target="_nrVnMflPuGKOb18nm5H-36">
          <mxGeometry relative="1" as="geometry" />
        </mxCell>
        <mxCell id="_nrVnMflPuGKOb18nm5H-40" style="edgeStyle=orthogonalEdgeStyle;rounded=0;orthogonalLoop=1;jettySize=auto;html=1;exitX=1;exitY=1;exitDx=0;exitDy=0;entryX=0.58;entryY=0.05;entryDx=0;entryDy=0;entryPerimeter=0;" edge="1" parent="1" source="_nrVnMflPuGKOb18nm5H-31" target="_nrVnMflPuGKOb18nm5H-37">
          <mxGeometry relative="1" as="geometry" />
        </mxCell>
        <mxCell id="_nrVnMflPuGKOb18nm5H-44" value="CRUD product" style="rounded=0;whiteSpace=wrap;html=1;" vertex="1" parent="1">
          <mxGeometry x="-100" y="730" width="120" height="60" as="geometry" />
        </mxCell>
        <mxCell id="_nrVnMflPuGKOb18nm5H-46" value="view profile" style="rounded=0;whiteSpace=wrap;html=1;" vertex="1" parent="1">
          <mxGeometry x="640" y="710" width="120" height="60" as="geometry" />
        </mxCell>
        <mxCell id="_nrVnMflPuGKOb18nm5H-48" value="Incoming Order" style="rounded=0;whiteSpace=wrap;html=1;" vertex="1" parent="1">
          <mxGeometry x="270" y="710" width="120" height="60" as="geometry" />
        </mxCell>
        <mxCell id="_nrVnMflPuGKOb18nm5H-49" value="Order History" style="rounded=0;whiteSpace=wrap;html=1;" vertex="1" parent="1">
          <mxGeometry x="420" y="710" width="120" height="60" as="geometry" />
        </mxCell>
        <mxCell id="_nrVnMflPuGKOb18nm5H-50" style="edgeStyle=orthogonalEdgeStyle;rounded=0;orthogonalLoop=1;jettySize=auto;html=1;exitX=0;exitY=0.5;exitDx=0;exitDy=0;entryX=0.443;entryY=0.03;entryDx=0;entryDy=0;entryPerimeter=0;" edge="1" parent="1" source="_nrVnMflPuGKOb18nm5H-35" target="_nrVnMflPuGKOb18nm5H-48">
          <mxGeometry relative="1" as="geometry" />
        </mxCell>
        <mxCell id="_nrVnMflPuGKOb18nm5H-55" style="edgeStyle=orthogonalEdgeStyle;rounded=0;orthogonalLoop=1;jettySize=auto;html=1;exitX=1;exitY=0.3333333333333333;exitDx=0;exitDy=0;exitPerimeter=0;entryX=0;entryY=0.5;entryDx=0;entryDy=0;" edge="1" parent="1" source="_nrVnMflPuGKOb18nm5H-52" target="_nrVnMflPuGKOb18nm5H-54">
          <mxGeometry relative="1" as="geometry" />
        </mxCell>
        <mxCell id="_nrVnMflPuGKOb18nm5H-52" value="Admin&amp;nbsp;" style="shape=umlActor;verticalLabelPosition=bottom;verticalAlign=top;html=1;outlineConnect=0;" vertex="1" parent="1">
          <mxGeometry x="-70" y="870" width="30" height="60" as="geometry" />
        </mxCell>
        <mxCell id="_nrVnMflPuGKOb18nm5H-57" value="" style="edgeStyle=orthogonalEdgeStyle;rounded=0;orthogonalLoop=1;jettySize=auto;html=1;" edge="1" parent="1" source="_nrVnMflPuGKOb18nm5H-54" target="_nrVnMflPuGKOb18nm5H-56">
          <mxGeometry relative="1" as="geometry" />
        </mxCell>
        <mxCell id="_nrVnMflPuGKOb18nm5H-54" value="login" style="ellipse;whiteSpace=wrap;html=1;" vertex="1" parent="1">
          <mxGeometry x="80" y="850" width="120" height="80" as="geometry" />
        </mxCell>
        <mxCell id="_nrVnMflPuGKOb18nm5H-59" value="" style="edgeStyle=orthogonalEdgeStyle;rounded=0;orthogonalLoop=1;jettySize=auto;html=1;" edge="1" parent="1" source="_nrVnMflPuGKOb18nm5H-56" target="_nrVnMflPuGKOb18nm5H-58">
          <mxGeometry relative="1" as="geometry" />
        </mxCell>
        <mxCell id="_nrVnMflPuGKOb18nm5H-61" value="" style="edgeStyle=orthogonalEdgeStyle;rounded=0;orthogonalLoop=1;jettySize=auto;html=1;" edge="1" parent="1" source="_nrVnMflPuGKOb18nm5H-56" target="_nrVnMflPuGKOb18nm5H-60">
          <mxGeometry relative="1" as="geometry" />
        </mxCell>
        <mxCell id="_nrVnMflPuGKOb18nm5H-56" value="Dashboard" style="ellipse;whiteSpace=wrap;html=1;" vertex="1" parent="1">
          <mxGeometry x="280" y="850" width="120" height="80" as="geometry" />
        </mxCell>
        <mxCell id="_nrVnMflPuGKOb18nm5H-71" style="edgeStyle=orthogonalEdgeStyle;rounded=0;orthogonalLoop=1;jettySize=auto;html=1;exitX=0.5;exitY=1;exitDx=0;exitDy=0;entryX=0.5;entryY=0;entryDx=0;entryDy=0;" edge="1" parent="1" source="_nrVnMflPuGKOb18nm5H-58" target="_nrVnMflPuGKOb18nm5H-70">
          <mxGeometry relative="1" as="geometry" />
        </mxCell>
        <mxCell id="_nrVnMflPuGKOb18nm5H-58" value="Merchants&amp;nbsp;" style="rounded=1;whiteSpace=wrap;html=1;" vertex="1" parent="1">
          <mxGeometry x="410" y="950" width="120" height="60" as="geometry" />
        </mxCell>
        <mxCell id="_nrVnMflPuGKOb18nm5H-67" style="edgeStyle=orthogonalEdgeStyle;rounded=0;orthogonalLoop=1;jettySize=auto;html=1;exitX=0.5;exitY=1;exitDx=0;exitDy=0;entryX=0.5;entryY=0;entryDx=0;entryDy=0;" edge="1" parent="1" source="_nrVnMflPuGKOb18nm5H-60" target="_nrVnMflPuGKOb18nm5H-66">
          <mxGeometry relative="1" as="geometry" />
        </mxCell>
        <mxCell id="_nrVnMflPuGKOb18nm5H-60" value="Clients" style="rounded=1;whiteSpace=wrap;html=1;" vertex="1" parent="1">
          <mxGeometry x="230" y="950" width="120" height="60" as="geometry" />
        </mxCell>
        <mxCell id="_nrVnMflPuGKOb18nm5H-66" value="CRUD Client" style="rounded=0;whiteSpace=wrap;html=1;" vertex="1" parent="1">
          <mxGeometry x="240" y="1100" width="120" height="60" as="geometry" />
        </mxCell>
        <mxCell id="_nrVnMflPuGKOb18nm5H-70" value="CRUD Merchant" style="rounded=0;whiteSpace=wrap;html=1;" vertex="1" parent="1">
          <mxGeometry x="420" y="1090" width="120" height="60" as="geometry" />
        </mxCell>
      </root>
    </mxGraphModel>
  </diagram>
</mxfile>
